<svg width="23" height="25" viewBox="0 0 23 25" fill="none" xmlns="http://www.w3.org/2000/svg">
<path d="M21.5338 18.5484L16.5021 13.0594C15.5096 11.9766 14.0271 11.7656 12.8326 12.4078L8.25215 7.41094V4.5L2.75215 0L0.0021484 3L4.12715 9H6.79551L11.376 13.9969C10.7916 15.3 10.9807 16.9172 11.9732 18L17.0049 23.4891C17.6322 24.1734 18.6463 24.1734 19.2693 23.4891L21.5338 21.0187C22.1568 20.3344 22.1568 19.2281 21.5338 18.5484ZM14.2549 10.5469C15.4709 10.5469 16.6139 11.0625 17.4732 12L18.3068 12.9094C18.9857 12.5859 19.6303 12.1359 20.1889 11.5266C21.783 9.7875 22.3244 7.34062 21.8174 5.11875C21.7229 4.69687 21.2373 4.55156 20.9537 4.86094L17.7568 8.34844L14.8393 7.81875L14.3537 4.63594L17.5506 1.14844C17.8342 0.839063 17.6967 0.309375 17.3057 0.201563C15.2689 -0.346875 13.026 0.24375 11.4361 1.97813C10.2115 3.31406 9.63574 5.07656 9.66582 6.83438L13.1936 10.6828C13.5416 10.5938 13.9025 10.5469 14.2549 10.5469ZM9.79043 14.3906L7.3541 11.7328L0.805664 18.8812C-0.268555 20.0531 -0.268555 21.9516 0.805664 23.1234C1.87988 24.2953 3.62012 24.2953 4.69434 23.1234L10.0053 17.3297C9.67871 16.3969 9.57988 15.3797 9.79043 14.3906ZM2.75215 22.125C2.18496 22.125 1.7209 21.6187 1.7209 21C1.7209 20.3766 2.18066 19.875 2.75215 19.875C3.32363 19.875 3.7834 20.3766 3.7834 21C3.7834 21.6187 3.32363 22.125 2.75215 22.125Z" fill="#474851"/>
</svg>
