<svg width="22" height="18" viewBox="0 0 22 18" fill="none" xmlns="http://www.w3.org/2000/svg">
<path d="M14.3 12H15.95C16.225 12 16.5 11.7 16.5 11.4V5.1C16.5 4.8 16.225 4.5 15.95 4.5H14.3C14.025 4.5 13.75 4.8 13.75 5.1V11.4C13.75 11.7 14.025 12 14.3 12ZM18.425 12H20.075C20.35 12 20.625 11.7 20.625 11.4V0.6C20.625 0.3 20.35 0 20.075 0H18.425C18.15 0 17.875 0.3 17.875 0.6V11.4C17.875 11.7 18.15 12 18.425 12ZM6.05 12H7.7C7.975 12 8.25 11.7 8.25 11.4V8.1C8.25 7.8 7.975 7.5 7.7 7.5H6.05C5.775 7.5 5.5 7.8 5.5 8.1V11.4C5.5 11.7 5.775 12 6.05 12ZM10.175 12H11.825C12.1 12 12.375 11.7 12.375 11.4V2.1C12.375 1.8 12.1 1.5 11.825 1.5H10.175C9.9 1.5 9.625 1.8 9.625 2.1V11.4C9.625 11.7 9.9 12 10.175 12ZM21.3125 15H2.75V0.75C2.75 0.335625 2.44234 0 2.0625 0H0.6875C0.307656 0 0 0.335625 0 0.75V16.5C0 17.3283 0.615742 18 1.375 18H21.3125C21.6923 18 22 17.6644 22 17.25V15.75C22 15.3356 21.6923 15 21.3125 15Z" fill="#474851"/>
</svg>
