<svg width="22" height="18" viewBox="0 0 22 18" fill="none" xmlns="http://www.w3.org/2000/svg">
<path d="M21.5832 5.94375C21.7508 5.79844 22 5.93437 22 6.16406V15.75C22 16.9922 21.0762 18 19.9375 18H2.0625C0.923828 18 0 16.9922 0 15.75V6.16875C0 5.93438 0.244922 5.80312 0.416797 5.94844C1.3793 6.76406 2.65547 7.8 7.03828 11.2734C7.94492 11.9953 9.47461 13.5141 11 13.5047C12.534 13.5188 14.0937 11.9672 14.966 11.2734C19.3488 7.8 20.6207 6.75938 21.5832 5.94375ZM11 12C11.9969 12.0188 13.432 10.6313 14.1539 10.0594C19.8559 5.54531 20.2898 5.15156 21.6047 4.02656C21.8539 3.81562 22 3.4875 22 3.14062V2.25C22 1.00781 21.0762 0 19.9375 0H2.0625C0.923828 0 0 1.00781 0 2.25V3.14062C0 3.4875 0.146094 3.81094 0.395312 4.02656C1.71016 5.14687 2.14414 5.54531 7.84609 10.0594C8.56797 10.6313 10.0031 12.0188 11 12Z" fill="#C9CACC"/>
</svg>
