<svg width="22" height="24" viewBox="0 0 22 24" fill="none" xmlns="http://www.w3.org/2000/svg">
<path d="M22 8.25005C22 12.8064 18.6141 16.5 14.4375 16.5C13.9554 16.5 13.484 16.4502 13.027 16.3561L11.9952 17.6224C11.8984 17.7412 11.7797 17.8362 11.6469 17.9013C11.514 17.9664 11.3701 18 11.2244 18H9.625V19.875C9.625 20.4963 9.1633 21 8.59375 21H6.875V22.875C6.875 23.4963 6.4133 24 5.84375 24H1.03125C0.461699 24 0 23.4963 0 22.875V19.216C0 18.9176 0.108668 18.6315 0.302027 18.4205L7.25446 10.836C7.00855 10.0225 6.875 9.15333 6.875 8.25C6.875 3.69366 10.2608 4.68755e-05 14.4375 4.47777e-10C18.6264 -4.68746e-05 22 3.6802 22 8.25005ZM14.4375 6C14.4375 7.24266 15.3609 8.25 16.5 8.25C17.6391 8.25 18.5625 7.24266 18.5625 6C18.5625 4.75734 17.6391 3.75 16.5 3.75C15.3609 3.75 14.4375 4.75734 14.4375 6Z" fill="#474851"/>
</svg>
